<svg width="304" height="83" viewBox="0 0 304 83" fill="none" xmlns="http://www.w3.org/2000/svg">
<path d="M32.8252 41.3134L35.4889 40.4255C35.4889 40.4255 35.7019 30.9074 41.4909 29.1316C41.4909 29.1316 37.9394 31.3336 37.0515 35.3468C37.0515 35.3468 40.6031 35.3468 42.805 33.1448C42.805 33.1448 44.5808 31.3691 45.007 28.7054C45.007 28.7054 45.4331 26.9297 45.8948 26.5035C45.8948 26.5035 36.5898 24.7277 34.3524 35.3823H33.9262C33.9262 35.3823 33.9262 25.1894 21.9575 22.5258C21.9575 22.5258 22.3837 23.4136 22.8454 28.2792C22.8454 28.2792 23.3071 34.9206 30.8363 35.8085C30.8363 35.8085 29.5223 29.1671 26.3969 27.3914C26.3969 27.3203 31.298 27.782 32.8252 41.3134Z" fill="#0E7E3F"/>
<path d="M50.7249 39.7152C36.4122 40.6386 26.4679 46.6407 21.8154 50.1212C19.8621 51.5773 18.8322 52.6072 18.8322 52.6072C20.3238 52.3942 21.7444 52.2166 23.165 52.0745C31.9373 51.1866 38.7207 51.7549 43.4088 52.6072C47.2799 53.3176 49.7305 54.2054 50.7249 54.5961C53.9568 49.837 56.798 44.6518 58.1476 39.7152C55.555 39.5731 53.1044 39.5731 50.7249 39.7152Z" fill="#36B850"/>
<path d="M37.7618 59.8169C35.7375 60.8823 33.8196 62.0188 32.1149 63.0843C29.3802 64.8245 27.2493 66.3872 26.2194 67.1685C28.5989 69.7967 30.4102 71.6435 31.0494 72.2117L33.5355 74.6623L36.0216 72.2117C37.3001 70.9331 44.1191 64.1497 50.0146 55.7326C46.1435 56.0167 41.7751 57.757 37.7618 59.8169Z" fill="#36B850"/>
<path d="M42.2368 54.2054C34.7075 53.1044 28.6699 53.211 24.3371 53.6727C20.1818 54.0989 17.5536 54.8447 16.5947 55.1288C19.3294 59.1065 22.3482 62.8001 24.8698 65.7124C26.8587 64.1497 28.8475 62.8001 30.7653 61.6281C34.3169 59.4262 37.6198 57.8635 40.2479 56.798C43.6929 55.3774 45.8949 54.8447 45.8949 54.8447C44.6518 54.5961 43.4443 54.383 42.2368 54.2054Z" fill="#0E7E3F"/>
<path d="M16.4171 40.1058C12.9366 39.8217 10.0599 39.7507 8.85236 39.7507C10.0954 44.2611 12.5459 48.9492 15.4227 53.3176C17.1985 51.3287 18.9742 49.6595 20.6434 48.2744C26.0063 43.8705 30.4102 42.4143 30.4102 42.4143C26.1128 41.1358 20.7855 40.461 16.4171 40.1058Z" fill="#0E7E3F"/>
<path d="M14.6414 37.4422C14.961 37.4777 15.2806 37.5132 15.6003 37.5132C15.2806 36.2702 15.1031 35.0627 15.1031 33.9617C15.1031 23.7333 23.5202 15.1031 33.5 15.1031C43.4798 15.1031 51.8969 23.7333 51.8969 33.9617C51.8969 34.9561 51.7549 36.0216 51.5063 37.1226C51.8259 37.087 52.1811 37.0515 52.5007 37.0515C54.4896 36.9095 56.585 36.9095 58.7514 36.9805C58.929 35.9506 59 34.9561 59 33.9617C59 27.1428 56.3719 20.679 51.5773 15.7423C46.7472 10.7702 40.3189 8 33.5 8C26.6811 8 20.2883 10.7347 15.4227 15.7423C10.6281 20.679 8 27.1428 8 33.9617C8 34.9916 8.10655 36.0216 8.28412 37.087C9.74025 37.1581 12.0132 37.2291 14.6414 37.4422Z" fill="#FFBD09"/>
<path d="M80.125 56.5186C78.25 56.5186 76.5156 56.1905 74.9219 55.4874C73.3281 54.8311 71.9219 53.8468 70.75 52.628C69.5781 51.3624 68.6406 49.9093 67.9844 48.2218C67.3281 46.5343 67 44.7061 67 42.6905C67 40.6749 67.3281 38.8468 67.9844 37.1593C68.6406 35.4718 69.5781 34.0186 70.75 32.753C71.9219 31.4874 73.3281 30.5499 74.9219 29.8936C76.5156 29.2374 78.25 28.8624 80.1719 28.8624C82.2813 28.8624 84.1562 29.2843 85.8906 30.0811C87.5781 30.878 89.0312 32.0499 90.1562 33.5968L86.5469 37.253C85.7031 36.2218 84.8125 35.4249 83.7812 34.9093C82.75 34.3936 81.6719 34.1124 80.4531 34.1124C79.3281 34.1124 78.2969 34.2999 77.3125 34.7218C76.375 35.1436 75.5313 35.7061 74.875 36.4561C74.1719 37.2061 73.6562 38.1436 73.2812 39.1749C72.9062 40.2061 72.7187 41.378 72.7187 42.6436C72.7187 43.9093 72.9062 45.0811 73.2812 46.1124C73.6562 47.1436 74.2188 48.0343 74.875 48.8311C75.5313 49.628 76.375 50.1905 77.3125 50.5655C78.25 50.9874 79.2812 51.1749 80.4531 51.1749C81.6719 51.1749 82.75 50.8936 83.7812 50.378C84.8125 49.8624 85.7031 49.0655 86.5469 47.9874L90.1562 51.6436C88.9844 53.1905 87.5781 54.3624 85.8906 55.2061C84.2031 56.1436 82.2812 56.5186 80.125 56.5186Z" fill="#0E7E3F"/>
<path d="M100.609 56.378C99.0625 56.378 97.7031 56.0499 96.4844 55.3936C95.2656 54.7374 94.3281 53.7061 93.6719 52.3468C93.0156 50.9874 92.6875 49.253 92.6875 47.1436V35.5655H98.0781V46.2999C98.0781 47.9874 98.4063 49.253 99.0625 50.0499C99.7188 50.8468 100.656 51.2686 101.875 51.2686C102.719 51.2686 103.469 51.0811 104.078 50.6593C104.734 50.2843 105.25 49.6749 105.625 48.8311C106 47.9874 106.188 46.9561 106.188 45.7374V35.6124H111.531V56.1436H106.375V50.5186L107.313 52.1593C106.703 53.5655 105.766 54.6436 104.547 55.3936C103.328 56.003 102.016 56.378 100.609 56.378Z" fill="#0E7E3F"/>
<path d="M116.172 56.0968V27.8311H121.562V56.0968H116.172Z" fill="#0E7E3F"/>
<path d="M125.406 40.5811V35.9874H138.344V40.5811H125.406ZM135.25 56.378C133.047 56.378 131.359 55.7686 130.141 54.5499C128.922 53.3311 128.312 51.503 128.312 49.0186V31.0186H133.703V48.9249C133.703 49.7686 133.891 50.4718 134.312 50.9405C134.734 51.4093 135.297 51.6436 136 51.6436C136.844 51.6436 137.594 51.4093 138.203 50.8936L139.656 55.0655C139.094 55.4874 138.438 55.8155 137.641 56.0499C136.844 56.2843 136.094 56.378 135.25 56.378Z" fill="#0E7E3F"/>
<path d="M145.047 32.7061C144.063 32.7061 143.266 32.378 142.609 31.7686C142 31.1124 141.672 30.3624 141.672 29.4249C141.672 28.4874 142 27.6905 142.609 27.0811C143.219 26.4249 144.063 26.1436 145.047 26.1436C146.031 26.1436 146.828 26.4249 147.484 27.0343C148.094 27.6436 148.422 28.3936 148.422 29.3311C148.422 30.3155 148.094 31.1593 147.484 31.7686C146.875 32.378 146.078 32.7061 145.047 32.7061ZM142.375 56.0968V35.5655H147.766V56.0968H142.375Z" fill="#0E7E3F"/>
<path d="M157.516 56.0968L149.688 35.5655H155.266L161.781 53.2374H159.016L165.766 35.5655H170.969L163.094 56.0968H157.516Z" fill="#0E7E3F"/>
<path d="M181.187 56.378C179.219 56.378 177.437 55.9093 175.891 55.0186C174.344 54.0811 173.125 52.8624 172.234 51.2686C171.344 49.6749 170.922 47.8468 170.922 45.8311C170.922 43.7686 171.344 41.9405 172.234 40.3468C173.125 38.753 174.344 37.5343 175.891 36.5968C177.437 35.7061 179.172 35.2374 181.187 35.2374C183.156 35.2374 184.891 35.7061 186.437 36.5968C187.984 37.4874 189.203 38.753 190.094 40.2999C190.984 41.8936 191.406 43.7218 191.406 45.7843C191.406 47.7999 190.984 49.628 190.094 51.2218C189.203 52.8155 187.984 54.0811 186.437 54.9718C184.891 55.9093 183.156 56.378 181.187 56.378ZM181.187 51.503C182.078 51.503 182.875 51.2686 183.625 50.7999C184.328 50.3311 184.891 49.6749 185.312 48.8311C185.734 47.9874 185.922 46.9561 185.922 45.7843C185.922 44.6124 185.734 43.5811 185.312 42.7374C184.891 41.8936 184.328 41.2374 183.625 40.8155C182.922 40.3468 182.078 40.1124 181.187 40.1124C180.297 40.1124 179.5 40.3468 178.75 40.8155C178.047 41.2843 177.484 41.9405 177.016 42.7374C176.594 43.5811 176.359 44.6124 176.359 45.7843C176.359 46.9561 176.594 47.9405 177.016 48.8311C177.438 49.6749 178 50.3311 178.75 50.7999C179.453 51.2686 180.25 51.503 181.187 51.503Z" fill="#0E7E3F"/>
<path d="M199.188 54.5264V32.8702H191.406V27.8546H212.547V32.8702H204.813V54.5264H199.188Z" fill="#FFBD09"/>
<path d="M214.422 54.5264V33.9952H219.578V39.8077L218.828 38.1202C219.391 36.6671 220.281 35.5889 221.5 34.8389C222.719 34.0889 224.219 33.7139 225.953 33.7139V39.1983C225.719 39.1514 225.531 39.1514 225.344 39.1514C225.156 39.1514 224.969 39.1514 224.734 39.1514C223.234 39.1514 222.062 39.6202 221.125 40.5577C220.234 41.4952 219.766 42.9483 219.766 44.8702V54.5733H214.422V54.5264Z" fill="#FFBD09"/>
<path d="M233.406 54.8077C231.953 54.8077 230.687 54.5264 229.656 54.0108C228.625 53.4483 227.828 52.6983 227.266 51.7608C226.703 50.8233 226.422 49.7452 226.422 48.5733C226.422 47.3546 226.703 46.2764 227.219 45.3858C227.781 44.4483 228.625 43.7452 229.797 43.2296C230.969 42.7139 232.516 42.4327 234.391 42.4327H239.359V45.9014H235C233.734 45.9014 232.844 46.1358 232.375 46.6046C231.906 47.0733 231.672 47.6358 231.672 48.3389C231.672 49.0889 231.953 49.6983 232.469 50.1671C233.031 50.5889 233.734 50.8233 234.719 50.8233C235.609 50.8233 236.406 50.5889 237.156 50.1202C237.859 49.6514 238.375 48.9483 238.703 48.0577L239.547 50.8233C239.172 52.1358 238.422 53.1671 237.391 53.8233C236.406 54.4796 235.047 54.8077 233.406 54.8077ZM239.125 54.5264V50.5421L238.797 49.6514V42.4796C238.797 41.2139 238.422 40.2296 237.719 39.5264C237.016 38.8233 235.937 38.4483 234.484 38.4483C233.5 38.4483 232.516 38.6358 231.578 38.9639C230.641 39.2921 229.797 39.7608 229.141 40.3702L227.219 36.1983C228.25 35.4014 229.469 34.7921 230.875 34.3702C232.328 33.9483 233.781 33.7139 235.234 33.7139C238.094 33.7139 240.297 34.4639 241.844 35.9171C243.437 37.3702 244.187 39.7139 244.187 42.8077V54.5264H239.125Z" fill="#FFBD09"/>
<path d="M257.875 54.8077C255.859 54.8077 254.078 54.339 252.484 53.4483C250.891 52.5577 249.672 51.2921 248.781 49.6983C247.891 48.1046 247.469 46.2764 247.469 44.2608C247.469 42.1983 247.891 40.3702 248.781 38.7764C249.672 37.1827 250.891 35.9639 252.484 35.0264C254.078 34.1358 255.859 33.6671 257.875 33.6671C259.844 33.6671 261.531 34.1358 262.984 35.0264C264.438 35.9171 265.516 37.2296 266.219 38.9171L262.047 41.4014C261.578 40.4171 260.969 39.7139 260.219 39.2452C259.469 38.7764 258.719 38.5421 257.828 38.5421C256.891 38.5421 256.094 38.7764 255.344 39.2452C254.594 39.7139 254.031 40.3702 253.609 41.1671C253.188 42.0108 252.953 43.0421 252.953 44.2139C252.953 45.3858 253.188 46.4171 253.609 47.2608C254.031 48.1046 254.641 48.7608 255.344 49.1827C256.094 49.6514 256.938 49.8858 257.828 49.8858C258.672 49.8858 259.469 49.6515 260.219 49.2296C260.969 48.8077 261.531 48.0577 262.047 47.0733L266.219 49.6046C265.516 51.2452 264.438 52.5577 262.984 53.4483C261.531 54.3858 259.844 54.8077 257.875 54.8077Z" fill="#FFBD09"/>
<path d="M277.984 54.8077C275.875 54.8077 274 54.339 272.406 53.4483C270.813 52.5108 269.547 51.2921 268.703 49.6983C267.812 48.1046 267.391 46.2764 267.391 44.2608C267.391 42.1983 267.812 40.3702 268.703 38.7764C269.547 37.1827 270.766 35.9639 272.266 35.0264C273.766 34.1358 275.453 33.6671 277.375 33.6671C279.203 33.6671 280.844 34.0889 282.297 34.9327C283.75 35.7764 284.922 36.9952 285.766 38.5889C286.609 40.1827 287.031 42.0577 287.031 44.3077C287.031 44.5421 287.031 44.7764 286.984 45.1046C286.984 45.3858 286.938 45.6671 286.938 45.9014H271.797V42.4327H284.078L282.016 43.4639C282.016 42.3858 281.828 41.4483 281.406 40.6983C281.031 39.9014 280.469 39.2921 279.766 38.8702C279.062 38.4483 278.266 38.2139 277.328 38.2139C276.391 38.2139 275.594 38.4483 274.891 38.8702C274.187 39.2921 273.625 39.9483 273.25 40.7452C272.875 41.5421 272.641 42.4796 272.641 43.6046V44.5421C272.641 45.6671 272.875 46.6514 273.297 47.4952C273.766 48.3389 274.375 48.9952 275.219 49.4171C276.016 49.8389 277 50.0733 278.125 50.0733C279.109 50.0733 280 49.8858 280.75 49.5577C281.5 49.2296 282.203 48.714 282.812 48.0577L285.672 51.4796C284.828 52.5577 283.75 53.3546 282.438 53.9171C281.172 54.5265 279.672 54.8077 277.984 54.8077Z" fill="#FFBD09"/>
</svg>
