<svg width="251" height="69" viewBox="0 0 251 69" fill="none" xmlns="http://www.w3.org/2000/svg">
<path d="M27.1891 34.4852L29.3953 33.744C29.3953 33.744 29.5719 25.7991 34.3669 24.3168C34.3669 24.3168 31.4251 26.1548 30.6897 29.5047C30.6897 29.5047 33.6314 29.5047 35.4553 27.6667C35.4553 27.6667 36.9262 26.1844 37.2792 23.961C37.2792 23.961 37.6322 22.4788 38.0146 22.123C38.0146 22.123 30.3073 20.6407 28.454 29.5344H28.101C28.101 29.5344 28.101 21.0261 18.1874 18.8027C18.1874 18.8027 18.5404 19.5439 18.9228 23.6053C18.9228 23.6053 19.3052 29.149 25.5417 29.8901C25.5417 29.8901 24.4533 24.3464 21.8645 22.8642C21.8645 22.8049 25.9241 23.1903 27.1891 34.4852Z" fill="#6EE7A3"/>
<path d="M42.0153 33.1509C30.1602 33.9217 21.9233 38.9318 18.0697 41.8371C16.4517 43.0525 15.5986 43.9122 15.5986 43.9122C16.8342 43.7344 18.0108 43.5861 19.1875 43.4676C26.4536 42.7264 32.0723 43.2008 35.9554 43.9122C39.1618 44.5051 41.1916 45.2463 42.0153 45.5724C44.6923 41.5999 47.0457 37.2717 48.1635 33.1509C46.0161 33.0324 43.9863 33.0324 42.0153 33.1509Z" fill="#36B850"/>
<path d="M31.278 49.9302C29.6012 50.8196 28.0127 51.7682 26.6007 52.6576C24.3355 54.1102 22.5705 55.4146 21.7174 56.0668C23.6884 58.2606 25.1886 59.8021 25.7182 60.2765L27.7774 62.322L29.8366 60.2765C30.8956 59.2092 36.5437 53.547 41.427 46.521C38.2205 46.7582 34.6022 48.2108 31.278 49.9302Z" fill="#36B850"/>
<path d="M34.9846 45.2462C28.7482 44.3272 23.7472 44.4161 20.1583 44.8015C16.7165 45.1573 14.5396 45.7798 13.7454 46.017C16.0105 49.3373 18.511 52.4204 20.5996 54.8513C22.2469 53.5469 23.8943 52.4204 25.4828 51.4421C28.4246 49.6041 31.1604 48.2997 33.3373 47.4103C36.1907 46.2245 38.0146 45.7798 38.0146 45.7798C36.985 45.5723 35.9848 45.3944 34.9846 45.2462Z" fill="#6EE7A3"/>
<path d="M13.5983 33.4771C10.7154 33.24 8.33258 33.1807 7.3324 33.1807C8.362 36.9456 10.3918 40.8588 12.7746 44.5052C14.2455 42.8451 15.7163 41.4517 17.0989 40.2956C21.5409 36.6195 25.1887 35.4041 25.1887 35.4041C21.6292 34.3368 17.2166 33.7736 13.5983 33.4771Z" fill="#6EE7A3"/>
<path d="M12.1274 31.2538C12.3921 31.2834 12.6569 31.3131 12.9216 31.3131C12.6569 30.2755 12.5098 29.2675 12.5098 28.3485C12.5098 19.8107 19.4817 12.6068 27.7479 12.6068C36.0142 12.6068 42.9861 19.8107 42.9861 28.3485C42.9861 29.1786 42.8684 30.068 42.6625 30.987C42.9272 30.9573 43.2214 30.9277 43.4862 30.9277C45.1335 30.8091 46.8691 30.8091 48.6636 30.8684C48.8107 30.0087 48.8695 29.1786 48.8695 28.3485C48.8695 22.6566 46.6926 17.2611 42.7213 13.1404C38.7206 8.99007 33.396 6.67773 27.7479 6.67773C22.0998 6.67773 16.8047 8.96043 12.7745 13.1404C8.80322 17.2611 6.62634 22.6566 6.62634 28.3485C6.62634 29.2082 6.71459 30.068 6.86168 30.9573C8.06779 31.0166 9.95049 31.0759 12.1274 31.2538Z" fill="white"/>
<path d="M66.3674 47.1771C64.8143 47.1771 63.3777 46.9032 62.0576 46.3163C60.7375 45.7685 59.5727 44.9468 58.6021 43.9295C57.6314 42.873 56.8549 41.6601 56.3113 40.2515C55.7678 38.8429 55.496 37.3169 55.496 35.6344C55.496 33.9519 55.7678 32.426 56.3113 31.0174C56.8549 29.6088 57.6314 28.3958 58.6021 27.3394C59.5727 26.2829 60.7375 25.5004 62.0576 24.9526C63.3777 24.4048 64.8143 24.0918 66.4062 24.0918C68.1534 24.0918 69.7065 24.4439 71.143 25.1091C72.5408 25.7743 73.7444 26.7525 74.6762 28.0437L71.6866 31.0956C70.9877 30.2348 70.25 29.5697 69.3958 29.1393C68.5417 28.7088 67.6486 28.4741 66.6392 28.4741C65.7073 28.4741 64.8531 28.6306 64.0378 28.9827C63.2613 29.3349 62.5624 29.8044 62.0188 30.4305C61.4364 31.0565 61.0093 31.8391 60.6987 32.6999C60.3881 33.5607 60.2328 34.5389 60.2328 35.5953C60.2328 36.6517 60.3881 37.6299 60.6987 38.4907C61.0093 39.3516 61.4752 40.095 62.0188 40.7602C62.5624 41.4253 63.2613 41.8948 64.0378 42.2079C64.8143 42.56 65.6685 42.7165 66.6392 42.7165C67.6486 42.7165 68.5417 42.4818 69.3958 42.0514C70.25 41.621 70.9877 40.9558 71.6866 40.0559L74.6762 43.1078C73.7056 44.399 72.5408 45.3772 71.143 46.0815C69.7453 46.8641 68.1534 47.1771 66.3674 47.1771Z" fill="#6EE7A3"/>
<path d="M83.3345 47.0597C82.0532 47.0597 80.9273 46.7858 79.9178 46.238C78.9083 45.6902 78.1318 44.8294 77.5882 43.6947C77.0446 42.56 76.7728 41.1123 76.7728 39.3515V29.687H81.2379V38.6472C81.2379 40.0558 81.5097 41.1123 82.0532 41.7774C82.5968 42.4426 83.3733 42.7948 84.3828 42.7948C85.0817 42.7948 85.7029 42.6382 86.2077 42.2861C86.7512 41.9731 87.1783 41.4644 87.4889 40.7601C87.7995 40.0558 87.9548 39.195 87.9548 38.1777V29.7261H92.3811V46.864H88.1102V42.1687L88.8867 43.5382C88.3819 44.712 87.6054 45.6119 86.5959 46.238C85.5864 46.7466 84.4993 47.0597 83.3345 47.0597Z" fill="#6EE7A3"/>
<path d="M96.2249 46.8249V23.231H100.69V46.8249H96.2249Z" fill="#6EE7A3"/>
<path d="M103.874 33.8741V30.0396H114.59V33.8741H103.874ZM112.027 47.0601C110.202 47.0601 108.805 46.5515 107.795 45.5341C106.786 44.5168 106.281 42.9908 106.281 40.9171V25.8921H110.746V40.8388C110.746 41.5431 110.901 42.13 111.251 42.5213C111.6 42.9126 112.066 43.1082 112.648 43.1082C113.347 43.1082 113.969 42.9126 114.473 42.4822L115.677 45.9645C115.211 46.3167 114.667 46.5906 114.007 46.7862C113.347 46.9819 112.726 47.0601 112.027 47.0601Z" fill="#6EE7A3"/>
<path d="M120.142 27.3006C119.327 27.3006 118.667 27.0267 118.123 26.5181C117.618 25.9703 117.346 25.3442 117.346 24.5617C117.346 23.7791 117.618 23.114 118.123 22.6053C118.628 22.0575 119.327 21.8228 120.142 21.8228C120.957 21.8228 121.617 22.0575 122.161 22.5662C122.666 23.0748 122.937 23.7009 122.937 24.4834C122.937 25.3051 122.666 26.0094 122.161 26.5181C121.656 27.0267 120.996 27.3006 120.142 27.3006ZM117.929 46.8253V29.6874H122.394V46.8253H117.929Z" fill="#6EE7A3"/>
<path d="M130.47 46.8249L123.986 29.687H128.606L134.003 44.4381H131.712L137.303 29.687H141.613L135.09 46.8249H130.47Z" fill="#6EE7A3"/>
<path d="M150.077 47.0601C148.446 47.0601 146.971 46.6688 145.69 45.9254C144.408 45.1429 143.399 44.1255 142.661 42.7952C141.924 41.4649 141.574 39.9389 141.574 38.2564C141.574 36.5348 141.924 35.0088 142.661 33.6785C143.399 32.3481 144.408 31.3308 145.69 30.5483C146.971 29.8048 148.408 29.4136 150.077 29.4136C151.708 29.4136 153.144 29.8048 154.426 30.5483C155.707 31.2917 156.716 32.3481 157.454 33.6393C158.192 34.9697 158.541 36.4957 158.541 38.2173C158.541 39.8998 158.192 41.4257 157.454 42.7561C156.716 44.0864 155.707 45.1429 154.426 45.8863C153.144 46.6688 151.708 47.0601 150.077 47.0601ZM150.077 42.9908C150.815 42.9908 151.475 42.7952 152.096 42.4039C152.678 42.0127 153.144 41.4649 153.494 40.7606C153.843 40.0563 153.999 39.1955 153.999 38.2173C153.999 37.2391 153.843 36.3783 153.494 35.674C153.144 34.9697 152.678 34.4219 152.096 34.0698C151.514 33.6785 150.815 33.4828 150.077 33.4828C149.339 33.4828 148.679 33.6785 148.058 34.0698C147.476 34.461 147.01 35.0088 146.622 35.674C146.272 36.3783 146.078 37.2391 146.078 38.2173C146.078 39.1955 146.272 40.0171 146.622 40.7606C146.971 41.4649 147.437 42.0127 148.058 42.4039C148.641 42.7952 149.301 42.9908 150.077 42.9908Z" fill="#6EE7A3"/>
<path d="M164.986 45.5146V27.4376H158.541V23.251H176.052V27.4376H169.646V45.5146H164.986Z" fill="white"/>
<path d="M177.605 45.5142V28.3764H181.876V33.2282L181.255 31.8196C181.721 30.6066 182.458 29.7067 183.468 29.0807C184.477 28.4546 185.72 28.1416 187.156 28.1416V32.7195C186.962 32.6804 186.807 32.6804 186.652 32.6804C186.496 32.6804 186.341 32.6804 186.147 32.6804C184.904 32.6804 183.934 33.0717 183.157 33.8542C182.42 34.6368 182.031 35.8497 182.031 37.454V45.5534H177.605V45.5142Z" fill="white"/>
<path d="M193.33 45.749C192.126 45.749 191.078 45.5142 190.224 45.0838C189.37 44.6143 188.709 43.9883 188.244 43.2057C187.778 42.4232 187.545 41.5232 187.545 40.545C187.545 39.5277 187.778 38.6278 188.205 37.8844C188.671 37.1018 189.37 36.5149 190.34 36.0845C191.311 35.6541 192.592 35.4193 194.145 35.4193H198.261V38.3148H194.65C193.602 38.3148 192.864 38.5104 192.476 38.9017C192.087 39.293 191.893 39.7625 191.893 40.3494C191.893 40.9754 192.126 41.4841 192.553 41.8754C193.019 42.2275 193.602 42.4232 194.417 42.4232C195.155 42.4232 195.815 42.2275 196.436 41.8363C197.018 41.445 197.445 40.8581 197.717 40.1146L198.416 42.4232C198.105 43.5187 197.484 44.3795 196.63 44.9273C195.815 45.4751 194.689 45.749 193.33 45.749ZM198.067 45.5142V42.1884L197.795 41.445V35.4585C197.795 34.402 197.484 33.5803 196.902 32.9934C196.319 32.4065 195.426 32.0935 194.223 32.0935C193.407 32.0935 192.592 32.25 191.816 32.5239C191.039 32.7978 190.34 33.1891 189.797 33.6977L188.205 30.2154C189.059 29.5502 190.068 29.0415 191.233 28.6894C192.437 28.3372 193.64 28.1416 194.844 28.1416C197.212 28.1416 199.037 28.7676 200.319 29.9806C201.639 31.1935 202.26 33.1499 202.26 35.7324V45.5142H198.067Z" fill="white"/>
<path d="M213.597 45.7491C211.928 45.7491 210.452 45.3578 209.132 44.6144C207.812 43.871 206.803 42.8145 206.065 41.4842C205.327 40.1538 204.978 38.6279 204.978 36.9454C204.978 35.2238 205.327 33.6978 206.065 32.3674C206.803 31.0371 207.812 30.0198 209.132 29.2372C210.452 28.4938 211.928 28.1025 213.597 28.1025C215.228 28.1025 216.626 28.4938 217.829 29.2372C219.033 29.9807 219.926 31.0762 220.508 32.4848L217.053 34.5586C216.665 33.7369 216.16 33.15 215.539 32.7587C214.917 32.3674 214.296 32.1718 213.558 32.1718C212.782 32.1718 212.122 32.3674 211.501 32.7587C210.879 33.15 210.413 33.6978 210.064 34.363C209.715 35.0672 209.52 35.9281 209.52 36.9062C209.52 37.8844 209.715 38.7452 210.064 39.4495C210.413 40.1538 210.918 40.7016 211.501 41.0538C212.122 41.445 212.821 41.6407 213.558 41.6407C214.257 41.6407 214.917 41.4451 215.539 41.0929C216.16 40.7408 216.626 40.1147 217.053 39.293L220.508 41.4059C219.926 42.7754 219.033 43.871 217.829 44.6144C216.626 45.3969 215.228 45.7491 213.597 45.7491Z" fill="white"/>
<path d="M230.254 45.7491C228.507 45.7491 226.954 45.3578 225.633 44.6144C224.313 43.8318 223.265 42.8145 222.566 41.4842C221.828 40.1538 221.479 38.6279 221.479 36.9454C221.479 35.2238 221.828 33.6978 222.566 32.3674C223.265 31.0371 224.275 30.0198 225.517 29.2372C226.759 28.4938 228.157 28.1025 229.749 28.1025C231.263 28.1025 232.622 28.4547 233.826 29.159C235.029 29.8633 236 30.8806 236.699 32.2109C237.398 33.5413 237.747 35.1064 237.747 36.9845C237.747 37.1801 237.747 37.3758 237.708 37.6497C237.708 37.8844 237.67 38.1192 237.67 38.3148H225.129V35.4194H235.301L233.593 36.2802C233.593 35.3803 233.438 34.5977 233.088 33.9717C232.777 33.3065 232.312 32.7979 231.729 32.4457C231.147 32.0936 230.487 31.8979 229.71 31.8979C228.934 31.8979 228.274 32.0936 227.691 32.4457C227.109 32.7979 226.643 33.3456 226.332 34.0108C226.022 34.676 225.828 35.4585 225.828 36.3976V37.1801C225.828 38.1192 226.022 38.9409 226.371 39.6452C226.759 40.3495 227.264 40.8973 227.963 41.2494C228.623 41.6016 229.438 41.7972 230.37 41.7972C231.186 41.7972 231.923 41.6407 232.545 41.3668C233.166 41.0929 233.748 40.6625 234.253 40.1147L236.621 42.971C235.922 43.871 235.029 44.5361 233.942 45.0057C232.894 45.5143 231.652 45.7491 230.254 45.7491Z" fill="white"/>
</svg>
